<svg xmlns="http://www.w3.org/2000/svg" xmlns:xlink="http://www.w3.org/1999/xlink" width="512" zoomAndPan="magnify" viewBox="0 0 384 383.999986" height="512" preserveAspectRatio="xMidYMid meet" version="1.0"><defs><clipPath id="c3858e845c"><path d="M 86.398438 0 L 297.601562 0 C 320.515625 0 342.492188 9.101562 358.695312 25.304688 C 374.898438 41.507812 384 63.484375 384 86.398438 L 384 297.601562 C 384 345.316406 345.316406 384 297.601562 384 L 86.398438 384 C 38.683594 384 0 345.316406 0 297.601562 L 0 86.398438 C 0 38.683594 38.683594 0 86.398438 0 Z M 86.398438 0 " clip-rule="nonzero"/></clipPath><clipPath id="68f3259877"><path d="M 0 0 L 384 0 L 384 384 L 0 384 Z M 0 0 " clip-rule="nonzero"/></clipPath><clipPath id="ffdc947895"><path d="M 86.398438 0 L 297.601562 0 C 320.515625 0 342.492188 9.101562 358.695312 25.304688 C 374.898438 41.507812 384 63.484375 384 86.398438 L 384 297.601562 C 384 345.316406 345.316406 384 297.601562 384 L 86.398438 384 C 38.683594 384 0 345.316406 0 297.601562 L 0 86.398438 C 0 38.683594 38.683594 0 86.398438 0 Z M 86.398438 0 " clip-rule="nonzero"/></clipPath><clipPath id="5b9dffec50"><rect x="0" width="384" y="0" height="384"/></clipPath><clipPath id="c3a9eac3d1"><path d="M 0.875 0.523438 L 167.125 0.523438 L 167.125 42.488281 L 0.875 42.488281 Z M 0.875 0.523438 " clip-rule="nonzero"/></clipPath><clipPath id="c66a78b818"><path d="M 0.875 0.523438 L 167.125 0.523438 L 167.125 42.488281 L 0.875 42.488281 Z M 0.875 0.523438 " clip-rule="nonzero"/></clipPath><clipPath id="a5af57d49d"><rect x="0" width="168" y="0" height="43"/></clipPath><clipPath id="0f29bf1527"><path d="M 0.875 0.523438 L 42.839844 0.523438 L 42.839844 237.476562 L 0.875 237.476562 Z M 0.875 0.523438 " clip-rule="nonzero"/></clipPath><clipPath id="8274f13935"><path d="M 0.875 0.523438 L 42.839844 0.523438 L 42.839844 237.476562 L 0.875 237.476562 Z M 0.875 0.523438 " clip-rule="nonzero"/></clipPath><clipPath id="78fdbfc656"><rect x="0" width="43" y="0" height="238"/></clipPath><clipPath id="01ee453dc1"><path d="M 0.875 195.511719 L 167.125 195.511719 L 167.125 237.476562 L 0.875 237.476562 Z M 0.875 195.511719 " clip-rule="nonzero"/></clipPath><clipPath id="6d30ed5019"><path d="M 0.875 0.511719 L 167.125 0.511719 L 167.125 42.476562 L 0.875 42.476562 Z M 0.875 0.511719 " clip-rule="nonzero"/></clipPath><clipPath id="6254d7ae41"><rect x="0" width="168" y="0" height="43"/></clipPath><clipPath id="bd32057edb"><path d="M 0.875 98.015625 L 125.515625 98.015625 L 125.515625 139.984375 L 0.875 139.984375 Z M 0.875 98.015625 " clip-rule="nonzero"/></clipPath><clipPath id="19d8cb5dc6"><path d="M 0.875 0.015625 L 125.515625 0.015625 L 125.515625 41.984375 L 0.875 41.984375 Z M 0.875 0.015625 " clip-rule="nonzero"/></clipPath><clipPath id="1890382232"><rect x="0" width="126" y="0" height="42"/></clipPath><clipPath id="a0158283c2"><rect x="0" width="168" y="0" height="238"/></clipPath></defs><g clip-path="url(#c3858e845c)"><g><g clip-path="url(#5b9dffec50)"><g clip-path="url(#68f3259877)"><g clip-path="url(#ffdc947895)"><rect x="-84.48" width="552.96" fill="#0f0f0f" height="552.959979" y="-84.479997" fill-opacity="1"/></g></g></g></g></g><g transform="matrix(1, 0, 0, 1, 108, 73)"><g clip-path="url(#a0158283c2)"><g clip-path="url(#c3a9eac3d1)"><g><g clip-path="url(#a5af57d49d)"><g clip-path="url(#c66a78b818)"><path fill="#ffffff" d="M 0.875 0.523438 L 167.101562 0.523438 L 167.101562 42.488281 L 0.875 42.488281 Z M 0.875 0.523438 " fill-opacity="1" fill-rule="nonzero"/></g></g></g></g><g clip-path="url(#0f29bf1527)"><g><g clip-path="url(#78fdbfc656)"><g clip-path="url(#8274f13935)"><path fill="#ffffff" d="M 42.839844 0.523438 L 42.839844 237.402344 L 0.875 237.402344 L 0.875 0.523438 Z M 42.839844 0.523438 " fill-opacity="1" fill-rule="nonzero"/></g></g></g></g><g clip-path="url(#01ee453dc1)"><g transform="matrix(1, 0, 0, 1, 0, 195)"><g clip-path="url(#6254d7ae41)"><g clip-path="url(#6d30ed5019)"><path fill="#ffffff" d="M 0.875 0.511719 L 167.101562 0.511719 L 167.101562 42.476562 L 0.875 42.476562 Z M 0.875 0.511719 " fill-opacity="1" fill-rule="nonzero"/></g></g></g></g><g clip-path="url(#bd32057edb)"><g transform="matrix(1, 0, 0, 1, 0, 98)"><g clip-path="url(#1890382232)"><g clip-path="url(#19d8cb5dc6)"><path fill="#ffffff" d="M 0.875 0.015625 L 125.460938 0.015625 L 125.460938 41.984375 L 0.875 41.984375 Z M 0.875 0.015625 " fill-opacity="1" fill-rule="nonzero"/></g></g></g></g></g></g></svg>